#  
#  Wavefront OBJ generated by GLM library
#  
#  GLM library
#  Nate Robins
#  ndr@pobox.com
#  http://www.pobox.com/~ndr
#  

mtllib pawn.mtl


# 154 vertices
v -276.015991 -519.684692 0.000000
v -276.015991 -428.512207 0.000000
v -229.599976 -474.926910 0.000000
v -211.365997 -206.381989 0.000000
v -195.173004 -519.684692 -195.173004
v -195.173004 -519.684692 195.173004
v -195.173004 -428.512207 -195.173004
v -195.173004 -428.512207 195.173004
v -181.526001 158.309021 0.000000
v -173.876999 368.698975 0.000000
v -173.238998 -208.040985 0.000000
v -164.951004 -516.369385 0.000000
v -162.352005 -474.926910 -162.352005
v -162.352005 -474.926910 162.352005
v -153.987000 282.788025 0.000000
v -152.844986 448.818970 0.000000
v -149.457993 -206.381989 -149.457993
v -149.457993 -206.381989 149.457993
v -145.057007 174.885010 0.000000
v -133.453995 -206.381989 0.000000
v -128.358002 158.309021 -128.358002
v -128.358002 158.309021 128.358002
v -122.949997 368.698975 -122.949997
v -122.949997 368.698975 122.949997
v -122.498001 -208.040985 -122.498001
v -122.498001 -208.040985 122.498001
v -116.637985 -516.369385 -116.637985
v -116.637985 -516.369385 116.637985
v -113.462997 109.835999 0.000000
v -108.885002 282.788025 -108.885002
v -108.885002 282.788025 108.885002
v -108.077003 448.818970 -108.077003
v -108.077003 448.818970 108.077003
v -102.570999 174.885010 -102.570999
v -102.570999 174.885010 102.570999
v -95.326698 203.067017 0.000000
v -94.366501 -206.381989 -94.366501
v -94.366501 -206.381989 94.366501
v -90.226402 218.419006 0.000000
v -89.427185 -72.509003 0.000000
v -88.633301 495.080017 0.000000
v -80.230797 109.835999 -80.230797
v -80.230797 109.835999 80.230797
v -74.657204 39.072998 0.000000
v -67.406303 203.067017 -67.406303
v -67.406303 203.067017 67.406303
v -63.799702 218.419006 -63.799702
v -63.799702 218.419006 63.799702
v -63.234894 -72.509003 -63.234894
v -63.234894 -72.509003 63.234894
v -62.673191 495.080017 -62.673191
v -62.673191 495.080017 62.673191
v -52.790600 39.072998 -52.790600
v -52.790600 39.072998 52.790600
v -5.811110 166.596985 0.000000
v -4.109090 166.596985 -4.109090
v -4.109090 166.596985 4.109090
v 0.000000 -519.684692 -276.015991
v 0.000000 -428.512207 -276.015991
v 0.000000 -474.926910 -229.599976
v 0.000000 -206.381989 -211.365997
v 0.000000 158.309021 -181.526001
v 0.000000 368.698975 -173.876999
v 0.000000 -208.040985 -173.238998
v 0.000000 -516.369385 -164.951004
v 0.000000 282.788025 -153.987000
v 0.000000 448.818970 -152.844986
v 0.000000 174.885010 -145.057007
v 0.000000 -206.381989 -133.453995
v 0.000000 109.835999 -113.462997
v 0.000000 203.067017 -95.326698
v 0.000000 218.419006 -90.226402
v 0.000000 -72.509003 -89.427185
v 0.000000 495.080017 -88.633301
v 0.000000 39.072998 -74.657204
v 0.000000 166.596985 -5.811110
v 0.000000 -523.000000 0.000000
v 0.000000 523.000000 0.000000
v 0.000000 166.596985 5.811110
v 0.000000 39.072998 74.657204
v 0.000000 495.080017 88.633301
v 0.000000 -72.509003 89.427185
v 0.000000 218.419006 90.226402
v 0.000000 203.067017 95.326698
v 0.000000 109.835999 113.462997
v 0.000000 -206.381989 133.453995
v 0.000000 174.885010 145.057007
v 0.000000 448.818970 152.844986
v 0.000000 282.788025 153.987000
v 0.000000 -516.369385 164.951004
v 0.000000 -208.040985 173.238998
v 0.000000 368.698975 173.876999
v 0.000000 158.309021 181.526001
v 0.000000 -206.381989 211.365997
v 0.000000 -474.926910 229.599976
v 0.000000 -519.684692 276.015991
v 0.000000 -428.512207 276.015991
v 4.109090 166.596985 -4.109090
v 4.109090 166.596985 4.109090
v 5.811110 166.596985 0.000000
v 52.790600 39.072998 -52.790600
v 52.790600 39.072998 52.790600
v 62.673191 495.080017 -62.673191
v 62.673191 495.080017 62.673191
v 63.234894 -72.509003 -63.234894
v 63.234894 -72.509003 63.234894
v 63.799702 218.419006 -63.799702
v 63.799702 218.419006 63.799702
v 67.406303 203.067017 -67.406303
v 67.406303 203.067017 67.406303
v 74.657204 39.072998 0.000000
v 80.230797 109.835999 -80.230797
v 80.230797 109.835999 80.230797
v 88.633301 495.080017 0.000000
v 89.427185 -72.509003 0.000000
v 90.226402 218.419006 0.000000
v 94.366501 -206.381989 -94.366501
v 94.366501 -206.381989 94.366501
v 95.326698 203.067017 0.000000
v 102.570999 174.885010 -102.570999
v 102.570999 174.885010 102.570999
v 108.077003 448.818970 -108.077003
v 108.077003 448.818970 108.077003
v 108.885002 282.788025 -108.885002
v 108.885002 282.788025 108.885002
v 113.462997 109.835999 0.000000
v 116.637985 -516.369385 -116.637985
v 116.637985 -516.369385 116.637985
v 122.498001 -208.040985 -122.498001
v 122.498001 -208.040985 122.498001
v 122.949997 368.698975 -122.949997
v 122.949997 368.698975 122.949997
v 128.358002 158.309021 -128.358002
v 128.358002 158.309021 128.358002
v 133.453995 -206.381989 0.000000
v 145.057007 174.885010 0.000000
v 149.457993 -206.381989 -149.457993
v 149.457993 -206.381989 149.457993
v 152.844986 448.818970 0.000000
v 153.987000 282.788025 0.000000
v 162.352005 -474.926910 -162.352005
v 162.352005 -474.926910 162.352005
v 164.951004 -516.369385 0.000000
v 173.238998 -208.040985 0.000000
v 173.876999 368.698975 0.000000
v 181.526001 158.309021 0.000000
v 195.173004 -519.684692 -195.173004
v 195.173004 -519.684692 195.173004
v 195.173004 -428.512207 -195.173004
v 195.173004 -428.512207 195.173004
v 211.365997 -206.381989 0.000000
v 229.599976 -474.926910 0.000000
v 276.015991 -519.684692 0.000000
v 276.015991 -428.512207 0.000000

# 241 normals
vn 0.029837 -0.999546 0.004120
vn -0.667105 0.691821 -0.276323
vn -0.667105 0.691821 0.276322
vn -0.667106 0.691820 0.276323
vn -0.966066 -0.257658 0.018139
vn -0.872060 0.454545 -0.181383
vn -0.678590 -0.678609 0.281080
vn -0.678591 -0.678607 0.281080
vn -0.557095 0.826108 -0.084797
vn 0.018185 -0.999546 0.024011
vn -0.276323 0.691820 -0.667106
vn -0.667107 0.691820 -0.276323
vn -0.667105 0.691821 -0.276323
vn 0.024011 -0.999546 -0.018185
vn -0.667106 0.691820 0.276323
vn -0.276323 0.691820 0.667107
vn -0.276323 0.691821 0.667105
vn -0.695937 -0.257657 -0.670287
vn -0.670287 -0.257657 0.695937
vn -0.578251 -0.811943 -0.079839
vn -0.407839 0.897290 -0.168933
vn -0.407839 0.897290 0.168931
vn -0.407844 0.897287 0.168936
vn -0.999891 0.014727 -0.000428
vn 0.000905 0.999982 0.005883
vn 0.001838 -0.999995 -0.002473
vn -0.488381 0.454546 -0.744897
vn -0.678591 -0.678607 -0.281081
vn -0.678590 -0.678609 -0.281079
vn -0.744897 0.454546 0.488381
vn -0.281081 -0.678607 0.678591
vn -0.281079 -0.678609 0.678590
vn -0.873160 -0.487142 0.016876
vn -0.819468 0.572560 -0.025447
vn -0.333965 0.826108 -0.453886
vn -0.453886 0.826108 0.333965
vn -0.453735 0.891121 0.005289
vn -0.581524 0.810242 0.073063
vn -0.352431 -0.811942 -0.465342
vn -0.168936 0.897287 -0.407844
vn -0.407846 0.897287 -0.168934
vn -0.407839 0.897290 -0.168933
vn -0.465342 -0.811942 0.352431
vn -0.407844 0.897287 0.168936
vn -0.168934 0.897287 0.407846
vn -0.168933 0.897290 0.407839
vn -0.706726 0.014728 -0.707334
vn -0.707334 0.014728 0.706726
vn -0.003520 0.999982 0.004799
vn 0.004799 0.999982 0.003520
vn 0.003049 -0.999995 -0.000449
vn -0.000449 -0.999995 -0.003049
vn -0.744599 -0.667234 -0.019261
vn -0.629351 -0.487142 -0.605483
vn -0.605483 -0.487142 0.629351
vn -0.561457 0.572559 -0.597447
vn -0.597447 0.572559 0.561457
vn -0.324580 0.891121 -0.317099
vn -0.317099 0.891121 0.324580
vn -0.062140 0.995844 -0.066581
vn -0.462864 0.810243 -0.359533
vn -0.359533 0.810243 0.462864
vn -0.620345 -0.784234 0.012225
vn -0.974804 0.223050 0.002472
vn -0.474745 0.878783 -0.048561
vn -0.512890 -0.667234 -0.540131
vn -0.540131 -0.667234 0.512890
vn -0.982426 -0.186513 -0.007238
vn 0.003141 0.995844 -0.091020
vn -0.091020 0.995844 -0.003141
vn -0.447294 -0.784233 -0.430007
vn -0.430007 -0.784233 0.447294
vn -0.691037 0.223052 -0.687543
vn -0.687543 0.223052 0.691037
vn -0.301361 0.878782 -0.370032
vn -0.370032 0.878782 0.301361
vn -0.689562 -0.186513 -0.699798
vn -0.699798 -0.186513 0.689562
vn 0.376792 0.924836 0.052024
vn -0.511308 -0.832893 -0.211788
vn -0.511307 -0.832892 0.211790
vn -0.511309 -0.832892 0.211789
vn 0.229645 0.924836 0.303219
vn -0.211789 -0.832892 -0.511309
vn -0.511307 -0.832892 -0.211790
vn -0.511308 -0.832893 -0.211788
vn 0.303219 0.924836 -0.229645
vn -0.511309 -0.832892 0.211789
vn -0.211790 -0.832892 0.511307
vn -0.211788 -0.832893 0.511308
vn -0.004120 -0.999546 0.029837
vn 0.276323 0.691821 -0.667105
vn -0.276322 0.691821 -0.667105
vn -0.276323 0.691820 -0.667106
vn -0.018139 -0.257658 -0.966066
vn 0.181383 0.454545 -0.872060
vn -0.281080 -0.678609 -0.678590
vn -0.281080 -0.678607 -0.678591
vn 0.084797 0.826108 -0.557095
vn 0.079839 -0.811943 -0.578251
vn 0.168933 0.897290 -0.407839
vn -0.168931 0.897290 -0.407839
vn -0.168936 0.897287 -0.407844
vn 0.000428 0.014727 -0.999891
vn -0.005883 0.999982 0.000905
vn 0.002473 -0.999995 0.001838
vn -0.016876 -0.487141 -0.873160
vn 0.025447 0.572560 -0.819468
vn -0.005289 0.891121 -0.453735
vn -0.073063 0.810242 -0.581524
vn 0.019261 -0.667234 -0.744599
vn 0.066581 0.995844 -0.062140
vn -0.012225 -0.784234 -0.620345
vn -0.002472 0.223050 -0.974804
vn 0.048561 0.878783 -0.474745
vn 0.007238 -0.186513 -0.982426
vn -0.052024 0.924836 0.376792
vn 0.211788 -0.832893 -0.511308
vn -0.211790 -0.832892 -0.511307
vn -0.211789 -0.832892 -0.511309
vn -0.000000 -1.000000 0.000000
vn 0.000000 1.000000 -0.000000
vn 0.052024 0.924836 -0.376792
vn -0.211788 -0.832893 0.511308
vn 0.211790 -0.832892 0.511307
vn 0.211789 -0.832892 0.511309
vn -0.007238 -0.186513 0.982426
vn -0.048561 0.878783 0.474745
vn 0.002472 0.223050 0.974804
vn 0.012225 -0.784234 0.620345
vn -0.066581 0.995844 0.062140
vn -0.019261 -0.667234 0.744599
vn 0.073063 0.810242 0.581524
vn 0.005289 0.891121 0.453735
vn -0.025447 0.572560 0.819468
vn 0.016876 -0.487141 0.873160
vn -0.002473 -0.999995 -0.001838
vn 0.005883 0.999982 -0.000905
vn -0.000428 0.014727 0.999891
vn -0.079839 -0.811943 0.578251
vn -0.168933 0.897290 0.407839
vn 0.168931 0.897290 0.407839
vn 0.168936 0.897287 0.407844
vn -0.084797 0.826108 0.557095
vn -0.181383 0.454545 0.872060
vn 0.281080 -0.678609 0.678590
vn 0.281080 -0.678607 0.678591
vn 0.004120 -0.999546 -0.029837
vn -0.276323 0.691821 0.667105
vn 0.276322 0.691821 0.667105
vn 0.276323 0.691820 0.667106
vn 0.018139 -0.257658 0.966066
vn -0.303219 0.924836 0.229645
vn 0.511309 -0.832892 -0.211789
vn 0.211790 -0.832892 -0.511307
vn 0.211788 -0.832893 -0.511308
vn -0.229645 0.924836 -0.303219
vn 0.211789 -0.832892 0.511309
vn 0.511307 -0.832892 0.211790
vn 0.511308 -0.832893 0.211788
vn -0.376792 0.924836 -0.052024
vn 0.511307 -0.832892 -0.211790
vn 0.511309 -0.832892 -0.211789
vn 0.511308 -0.832893 0.211788
vn 0.699798 -0.186513 -0.689562
vn 0.689562 -0.186513 0.699798
vn 0.370032 0.878782 -0.301361
vn 0.301361 0.878782 0.370032
vn 0.687543 0.223052 -0.691037
vn 0.691037 0.223052 0.687543
vn 0.430007 -0.784233 -0.447294
vn 0.447294 -0.784233 0.430007
vn 0.091020 0.995844 0.003141
vn -0.003141 0.995844 0.091020
vn 0.982426 -0.186513 0.007238
vn 0.540131 -0.667234 -0.512890
vn 0.512890 -0.667234 0.540131
vn 0.474745 0.878783 0.048561
vn 0.974804 0.223050 -0.002472
vn 0.620345 -0.784234 -0.012225
vn 0.359533 0.810243 -0.462864
vn 0.462864 0.810243 0.359533
vn 0.062140 0.995844 0.066581
vn 0.317099 0.891121 -0.324580
vn 0.324580 0.891121 0.317099
vn 0.597447 0.572559 -0.561457
vn 0.561457 0.572559 0.597447
vn 0.605483 -0.487142 -0.629351
vn 0.629351 -0.487142 0.605483
vn 0.744599 -0.667234 0.019261
vn 0.000449 -0.999995 0.003049
vn -0.003049 -0.999995 0.000449
vn -0.004799 0.999982 -0.003520
vn 0.003520 0.999982 -0.004799
vn 0.707334 0.014728 -0.706726
vn 0.706726 0.014728 0.707334
vn 0.465342 -0.811942 -0.352431
vn 0.407844 0.897287 -0.168936
vn 0.168934 0.897287 -0.407846
vn 0.168933 0.897290 -0.407839
vn 0.352431 -0.811942 0.465342
vn 0.168936 0.897287 0.407844
vn 0.407846 0.897287 0.168934
vn 0.407839 0.897290 0.168933
vn 0.581524 0.810242 -0.073063
vn 0.453735 0.891121 -0.005289
vn 0.453886 0.826108 -0.333965
vn 0.333965 0.826108 0.453886
vn 0.819468 0.572560 0.025447
vn 0.873160 -0.487142 -0.016876
vn 0.744897 0.454546 -0.488381
vn 0.281081 -0.678607 -0.678591
vn 0.281079 -0.678609 -0.678590
vn 0.488381 0.454546 0.744897
vn 0.678591 -0.678607 0.281081
vn 0.678590 -0.678609 0.281079
vn -0.001838 -0.999995 0.002473
vn -0.000905 0.999982 -0.005883
vn 0.999891 0.014727 0.000428
vn 0.578251 -0.811943 0.079839
vn 0.407839 0.897290 -0.168931
vn 0.407844 0.897287 -0.168936
vn 0.407839 0.897290 0.168933
vn -0.024011 -0.999546 0.018185
vn 0.667106 0.691820 -0.276323
vn 0.276323 0.691820 -0.667107
vn 0.276323 0.691821 -0.667105
vn -0.018185 -0.999546 -0.024011
vn 0.276323 0.691820 0.667106
vn 0.667107 0.691820 0.276323
vn 0.667105 0.691821 0.276323
vn 0.670287 -0.257657 -0.695937
vn 0.695937 -0.257657 0.670287
vn 0.557095 0.826108 0.084797
vn 0.974519 0.208410 -0.082940
vn 0.678590 -0.678609 0.281079
vn -0.029837 -0.999546 -0.004120
vn 0.667105 0.691821 -0.276322
vn 0.667106 0.691820 -0.276323
vn 0.667105 0.691821 0.276323
vn 0.966066 -0.257658 -0.018139

# 1 groups
# 304 faces (triangles)

g default
usemtl pawn
f 104//168 114//178 78//122
f 81//128 104//168 78//122
f 52//76 81//128 78//122
f 41//65 52//76 78//122
f 51//75 41//65 78//122
f 74//115 51//75 78//122
f 103//167 74//115 78//122
f 114//178 103//167 78//122
f 123//187 139//209 114//178
f 104//168 123//187 114//178
f 88//135 123//187 104//168
f 81//128 88//135 104//168
f 33//57 88//135 81//128
f 52//76 33//57 81//128
f 16//34 33//57 52//76
f 41//65 16//34 52//76
f 32//56 16//34 41//65
f 51//75 32//56 41//65
f 67//108 32//56 51//75
f 74//115 67//108 51//75
f 122//186 67//108 74//115
f 103//167 122//186 74//115
f 139//209 122//186 103//167
f 114//178 139//209 103//167
f 132//196 145//219 139//209
f 123//187 132//196 139//209
f 92//139 132//196 123//187
f 88//135 92//139 123//187
f 24//48 92//139 88//135
f 33//57 24//48 88//135
f 10//24 24//48 33//57
f 16//34 10//24 33//57
f 23//47 10//24 16//34
f 32//56 23//47 16//34
f 63//104 23//47 32//56
f 67//108 63//104 32//56
f 131//195 63//104 67//108
f 122//186 131//195 67//108
f 145//219 131//195 122//186
f 139//209 145//219 122//186
f 125//189 140//210 145//219
f 132//196 125//189 145//219
f 89//136 125//189 132//196
f 92//139 89//136 132//196
f 31//55 89//136 92//139
f 24//48 31//55 92//139
f 15//33 31//55 24//48
f 10//24 15//33 24//48
f 30//54 15//33 10//24
f 23//47 30//54 10//24
f 66//107 30//54 23//47
f 63//104 66//107 23//47
f 124//188 66//107 63//104
f 131//195 124//188 63//104
f 140//210 124//188 131//195
f 145//219 140//210 131//195
f 108//172 116//180 140//210
f 125//189 108//172 140//210
f 83//130 108//172 125//189
f 89//136 83//130 125//189
f 48//72 83//130 89//136
f 31//55 48//72 89//136
f 39//63 48//72 31//55
f 15//33 39//63 31//55
f 47//71 39//63 15//33
f 30//54 47//71 15//33
f 72//113 47//71 30//54
f 66//107 72//113 30//54
f 107//171 72//113 66//107
f 124//188 107//171 66//107
f 116//180 107//171 124//188
f 140//210 116//180 124//188
f 99//160 100//164 116//180
f 108//172 99//159 116//180
f 79//126 99//158 108//172
f 83//130 79//125 108//172
f 57//90 79//124 83//130
f 48//72 57//89 83//130
f 55//82 57//88 48//72
f 39//63 55//81 48//72
f 56//86 55//80 39//63
f 47//71 56//85 39//63
f 76//120 56//84 47//71
f 72//113 76//119 47//71
f 98//156 76//118 72//113
f 107//171 98//155 72//113
f 100//163 98//154 107//171
f 116//180 100//162 107//171
f 110//174 119//183 100//161
f 99//157 110//174 100//161
f 84//131 110//174 99//157
f 79//123 84//131 99//157
f 46//70 84//131 79//123
f 57//87 46//70 79//123
f 36//60 46//70 57//87
f 55//79 36//60 57//87
f 45//69 36//60 55//79
f 56//83 45//69 55//79
f 71//112 45//69 56//83
f 76//117 71//112 56//83
f 109//173 71//112 76//117
f 98//153 109//173 76//117
f 119//183 109//173 98//153
f 100//161 119//183 98//153
f 121//185 136//206 119//183
f 110//174 121//185 119//183
f 87//134 121//185 110//174
f 84//131 87//134 110//174
f 35//59 87//134 84//131
f 46//70 35//59 84//131
f 19//37 35//59 46//70
f 36//60 19//37 46//70
f 34//58 19//37 36//60
f 45//69 34//58 36//60
f 68//109 34//58 45//69
f 71//112 68//109 45//69
f 120//184 68//109 71//112
f 109//173 120//184 71//112
f 136//206 120//184 109//173
f 119//183 136//206 109//173
f 134//204 146//223 136//206
f 121//185 134//203 136//206
f 93//143 134//202 121//185
f 87//134 93//142 121//185
f 22//46 93//141 87//134
f 35//59 22//45 87//134
f 9//23 22//44 35//59
f 19//37 9//22 35//59
f 21//42 9//21 19//37
f 34//58 21//41 19//37
f 62//103 21//40 34//58
f 68//109 62//102 34//58
f 133//200 62//101 68//109
f 120//184 133//199 68//109
f 146//222 133//198 120//184
f 136//206 146//221 120//184
f 113//177 126//190 146//220
f 134//201 113//177 146//220
f 85//132 113//177 134//201
f 93//140 85//132 134//201
f 43//67 85//132 93//140
f 22//43 43//67 93//140
f 29//53 43//67 22//43
f 9//20 29//53 22//43
f 42//66 29//53 9//20
f 21//39 42//66 9//20
f 70//111 42//66 21//39
f 62//100 70//111 21//39
f 112//176 70//111 62//100
f 133//197 112//176 62//100
f 126//190 112//176 133//197
f 146//220 126//190 133//197
f 102//166 111//175 126//190
f 113//177 102//166 126//190
f 80//127 102//166 113//177
f 85//132 80//127 113//177
f 54//78 80//127 85//132
f 43//67 54//78 85//132
f 44//68 54//78 43//67
f 29//53 44//68 43//67
f 53//77 44//68 29//53
f 42//66 53//77 29//53
f 75//116 53//77 42//66
f 70//111 75//116 42//66
f 101//165 75//116 70//111
f 112//176 101//165 70//111
f 111//175 101//165 112//176
f 126//190 111//175 112//176
f 106//170 115//179 111//175
f 102//166 106//170 111//175
f 82//129 106//170 102//166
f 80//127 82//129 102//166
f 50//74 82//129 80//127
f 54//78 50//74 80//127
f 40//64 50//74 54//78
f 44//68 40//64 54//78
f 49//73 40//64 44//68
f 53//77 49//73 44//68
f 73//114 49//73 53//77
f 75//116 73//114 53//77
f 105//169 73//114 75//116
f 101//165 105//169 75//116
f 115//179 105//169 101//165
f 111//175 115//179 101//165
f 118//182 135//205 115//179
f 106//170 118//182 115//179
f 86//133 118//182 106//170
f 82//129 86//133 106//170
f 38//62 86//133 82//129
f 50//74 38//62 82//129
f 20//38 38//62 50//74
f 40//64 20//38 50//74
f 37//61 20//38 40//64
f 49//73 37//61 40//64
f 69//110 37//61 49//73
f 73//114 69//110 49//73
f 117//181 69//110 73//114
f 105//169 117//181 73//114
f 135//205 117//181 105//169
f 115//179 135//205 105//169
f 130//194 144//218 135//205
f 118//182 130//194 135//205
f 91//138 130//194 118//182
f 86//133 91//138 118//182
f 26//50 91//138 86//133
f 38//62 26//50 86//133
f 11//25 26//50 38//62
f 20//38 11//25 38//62
f 25//49 11//25 20//38
f 37//61 25//49 20//38
f 64//105 25//49 37//61
f 69//110 64//105 37//61
f 129//193 64//105 69//110
f 117//181 129//193 69//110
f 144//218 129//193 117//181
f 135//205 144//218 117//181
f 138//208 151//234 144//218
f 130//194 138//208 144//218
f 94//144 138//208 130//194
f 91//138 94//144 130//194
f 18//36 94//144 91//138
f 26//50 18//36 91//138
f 4//9 18//36 26//50
f 11//25 4//9 26//50
f 17//35 4//9 11//25
f 25//49 17//35 11//25
f 61//99 17//35 25//49
f 64//105 61//99 25//49
f 137//207 61//99 64//105
f 129//193 137//207 64//105
f 151//234 137//207 129//193
f 144//218 151//234 129//193
f 150//233 154//241 151//234
f 138//208 150//233 151//234
f 97//152 150//233 138//208
f 94//144 97//152 138//208
f 8//19 97//152 94//144
f 18//36 8//19 94//144
f 2//5 8//19 18//36
f 4//9 2//5 18//36
f 7//18 2//5 4//9
f 17//35 7//18 4//9
f 59//95 7//18 17//35
f 61//99 59//95 17//35
f 149//232 59//95 61//99
f 137//207 149//232 61//99
f 154//241 149//232 137//207
f 151//234 154//241 137//207
f 142//216 152//236 154//241
f 150//233 142//215 154//241
f 95//147 142//214 150//233
f 97//152 95//146 150//233
f 14//32 95//145 97//152
f 8//19 14//31 97//152
f 3//8 14//30 8//19
f 2//5 3//7 8//19
f 13//29 3//6 2//5
f 7//18 13//28 2//5
f 60//98 13//27 7//18
f 59//95 60//97 7//18
f 141//213 60//96 59//95
f 149//232 141//212 59//95
f 152//235 141//211 149//232
f 154//241 152//235 149//232
f 148//231 153//240 152//235
f 142//214 148//230 152//235
f 96//151 148//229 142//214
f 95//145 96//150 142//214
f 6//17 96//149 95//145
f 14//30 6//16 95//145
f 1//4 6//15 14//30
f 3//6 1//3 14//30
f 5//13 1//2 3//6
f 13//27 5//12 3//6
f 58//94 5//11 13//27
f 60//96 58//93 13//27
f 147//227 58//92 60//96
f 141//211 147//226 60//96
f 153//239 147//225 141//211
f 152//235 153//238 141//211
f 128//192 143//217 153//237
f 148//228 128//192 153//237
f 90//137 128//192 148//228
f 96//148 90//137 148//228
f 28//52 90//137 96//148
f 6//14 28//52 96//148
f 12//26 28//52 6//14
f 1//1 12//26 6//14
f 27//51 12//26 1//1
f 5//10 27//51 1//1
f 65//106 27//51 5//10
f 58//91 65//106 5//10
f 127//191 65//106 58//91
f 147//224 127//191 58//91
f 143//217 127//191 147//224
f 153//237 143//217 147//224
f 128//192 77//121 143//217
f 90//137 77//121 128//192
f 28//52 77//121 90//137
f 12//26 77//121 28//52
f 27//51 77//121 12//26
f 65//106 77//121 27//51
f 127//191 77//121 65//106
f 143//217 77//121 127//191

